<svg width="24" height="24" viewBox="0 0 24 24" fill="none" xmlns="http://www.w3.org/2000/svg">
<path d="M11.1766 16.712C11.2683 16.8008 11.3911 16.8734 11.5343 16.9236C11.6775 16.9738 11.8369 17 11.9986 17C12.1604 17 12.3198 16.9738 12.463 16.9236C12.6062 16.8734 12.729 16.8008 12.8207 16.712L21.8214 8.04593C21.9256 7.94597 21.9867 7.8289 21.9981 7.70742C22.0094 7.58595 21.9706 7.46472 21.8859 7.3569C21.8012 7.24909 21.6737 7.15882 21.5174 7.0959C21.3611 7.03298 21.1819 6.99981 20.9993 7H2.99794C2.81577 7.0005 2.63725 7.0341 2.48158 7.09717C2.32591 7.16024 2.19898 7.25041 2.11444 7.35797C2.0299 7.46553 1.99095 7.58642 2.00177 7.70764C2.0126 7.82886 2.07279 7.94581 2.17588 8.04593L11.1766 16.712Z" fill="white" fill-opacity="0.9"/>
</svg>
