<svg width="41" height="41" viewBox="0 0 41 41" fill="none" xmlns="http://www.w3.org/2000/svg">
<path d="M37.35 40.5L23.175 26.325C22.05 27.225 20.7562 27.9375 19.2937 28.4625C17.8312 28.9875 16.275 29.25 14.625 29.25C10.5375 29.25 7.0785 27.834 4.248 25.002C1.4175 22.17 0.0015 18.711 0 14.625C0 10.5375 1.416 7.0785 4.248 4.248C7.08 1.4175 10.539 0.0015 14.625 0C18.7125 0 22.1722 1.416 25.0042 4.248C27.8362 7.08 29.2515 10.539 29.25 14.625C29.25 16.275 28.9875 17.8312 28.4625 19.2937C27.9375 20.7562 27.225 22.05 26.325 23.175L40.5 37.35L37.35 40.5ZM14.625 24.75C17.4375 24.75 19.8285 23.766 21.798 21.798C23.7675 19.83 24.7515 17.439 24.75 14.625C24.75 11.8125 23.766 9.42225 21.798 7.45425C19.83 5.48625 17.439 4.5015 14.625 4.5C11.8125 4.5 9.42225 5.48475 7.45425 7.45425C5.48625 9.42375 4.5015 11.814 4.5 14.625C4.5 17.4375 5.48475 19.8285 7.45425 21.798C9.42375 23.7675 11.814 24.7515 14.625 24.75Z" fill="black"/>
</svg>
